<?xml version="1.0" standalone="no"?><!DOCTYPE svg PUBLIC "-//W3C//DTD SVG 1.1//EN" "http://www.w3.org/Graphics/SVG/1.1/DTD/svg11.dtd"><svg t="1742976840853" class="icon" viewBox="0 0 1024 1024" version="1.1" xmlns="http://www.w3.org/2000/svg" p-id="6668" xmlns:xlink="http://www.w3.org/1999/xlink" width="200" height="200"><path d="M0 0h1024v1024H0z" fill="#FFFFFF" p-id="6669"></path><path d="M0 960h1024v32H0z" fill="#F7B600" p-id="6670"></path><path d="M0 608h1024v32H0zM661.44 698.08c-18.56-6.72-38.24-10.24-58.08-10.08-64 0-109.12 32.32-109.44 78.56-0.48 34.08 32.16 53.12 56.64 64.48 25.28 11.68 33.6 19.04 33.6 29.44-0.16 15.84-20.16 23.04-38.72 23.04-25.6 0-39.52-3.52-60.96-12.48l-8-3.68-8.96 53.28c15.52 6.56 43.52 12 72.48 12.48 68 0 112.48-32 112.96-81.28 0.48-27.04-16.96-47.68-54.08-64.64-22.4-11.04-36.48-18.4-36.48-29.6 0-9.92 12-20.48 36.96-20.48 16.64-0.32 33.12 2.72 48.48 9.12l5.92 2.72 8.96-51.52-1.6 0.32z m166.08-5.6H777.6c-15.52 0-27.2 4.16-34.08 19.68l-96.16 217.76h68l13.6-35.68h83.04c2.08 8.32 8 35.68 8 35.68H880l-52.32-237.44z m-425.6-2.08h64.8L426.24 928h-64.8l40.48-237.76z m-164.64 131.04l6.72 32.96 63.36-161.92h68.64L273.92 929.6h-68.48l-56-200.8a12.992 12.992 0 0 0-6.08-7.84c-20.16-10.4-41.44-18.4-63.52-23.52l0.8-4.96h104.32c14.08 0.48 25.6 4.96 29.44 20.16l22.72 109.12z m510.24 24.16l25.76-66.4s5.28-13.76 8.64-22.72l4.48 20.48 15.04 68.64h-53.76z" fill="#1535CC" p-id="6671"></path><path d="M403.84 475.52h216.32V85.12H403.84v390.4z" fill="#FF5F00" p-id="6672"></path><path d="M417.6 280.32c0-79.2 36.96-149.76 94.4-195.2A245.232 245.232 0 0 0 359.2 32C222.72 32 112 143.2 112 280.32s110.72 248.32 247.2 248.32c57.6 0 110.72-19.84 152.8-53.12-57.44-45.44-94.4-116-94.4-195.2" fill="#EB001B" p-id="6673"></path><path d="M912 280.32c0 137.12-110.72 248.32-247.2 248.32-57.6 0-110.72-19.84-152.8-53.12 57.44-45.44 94.4-116 94.4-195.2S569.44 130.56 512 85.12C554.08 51.84 607.04 32 664.8 32 801.28 32 912 143.2 912 280.32z" fill="#F79E1B" p-id="6674"></path></svg>